<?xml version="1.0" standalone="no"?>
<!DOCTYPE svg PUBLIC "-//W3C//DTD SVG 20010904//EN"
 "http://www.w3.org/TR/2001/REC-SVG-20010904/DTD/svg10.dtd">
<svg version="1.0" xmlns="http://www.w3.org/2000/svg"
 width="720.000000pt" height="720.000000pt" viewBox="0 0 720.000000 720.000000"
 preserveAspectRatio="xMidYMid meet">
<metadata>
Created by potrace 1.11, written by Peter Selinger 2001-2013
</metadata>
<g transform="translate(0.000000,720.000000) scale(0.100000,-0.100000)"
fill="#000000" stroke="none">
<path d="M3475 7125 c-72 -41 -141 -82 -155 -90 -14 -8 -55 -32 -92 -53 l-68
-37 0 -128 c0 -71 -3 -127 -8 -125 -4 2 -53 29 -110 62 -97 55 -104 58 -130
45 -15 -8 -116 -65 -224 -128 l-196 -114 0 -96 c-1 -53 -1 -110 -1 -128 l-1
-31 -52 29 c-29 16 -62 35 -73 42 -10 7 -36 22 -57 34 l-37 22 -123 -71 c-68
-39 -154 -89 -193 -111 -38 -21 -84 -48 -100 -59 l-31 -21 1 -123 c0 -68 -2
-124 -5 -124 -3 0 -52 27 -109 60 -57 34 -109 59 -116 56 -6 -2 -83 -46 -171
-96 -87 -51 -177 -102 -199 -114 -69 -36 -68 -35 -68 -171 l1 -124 -47 25
c-25 14 -53 29 -61 34 -8 5 -38 23 -66 38 l-50 29 -205 -118 c-112 -66 -211
-123 -219 -128 -13 -7 -15 -49 -18 -267 l-2 -259 110 -64 111 -63 -82 -49
c-45 -27 -85 -49 -88 -49 -3 -1 -16 -9 -28 -19 -23 -19 -23 -22 -23 -273 0
-248 0 -253 21 -267 21 -12 35 -20 127 -72 78 -45 79 -40 -18 -97 -49 -29 -92
-52 -95 -52 -4 0 -13 -6 -21 -14 -11 -12 -14 -62 -14 -269 l0 -255 61 -36 c33
-20 63 -36 67 -36 4 0 26 -13 48 -28 41 -28 41 -29 20 -42 -29 -20 -92 -55
-148 -85 l-48 -25 0 -260 0 -259 73 -42 c39 -23 89 -52 110 -64 l39 -23 -111
-63 -111 -64 3 -259 2 -259 150 -87 c83 -47 170 -97 195 -110 25 -14 56 -33
69 -42 23 -17 25 -17 55 1 105 64 172 101 184 101 5 0 10 -44 10 -97 0 -54 0
-110 1 -124 1 -26 49 -57 346 -227 106 -60 88 -60 205 7 58 34 107 61 110 61
3 0 5 -56 5 -125 l-1 -125 106 -63 c58 -34 112 -65 121 -68 8 -4 46 -25 82
-48 37 -23 70 -41 73 -41 3 0 19 -9 34 -20 l29 -20 51 30 c28 16 55 30 60 30
4 0 10 4 12 8 2 4 24 20 51 34 l47 27 1 -32 c0 -18 0 -76 1 -129 0 -95 0 -98
26 -111 15 -8 68 -38 117 -66 102 -61 128 -75 228 -132 l72 -41 45 24 c25 13
75 41 113 61 l67 37 0 -127 0 -128 97 -55 c97 -55 153 -87 228 -130 22 -13 59
-34 82 -47 l41 -24 101 61 c55 33 104 60 110 60 5 0 16 6 23 13 7 7 57 37 110
67 l98 55 0 128 c0 70 2 127 3 127 2 0 51 -27 108 -60 57 -33 107 -60 111 -60
4 0 67 34 140 77 73 42 142 81 153 87 11 7 50 29 86 50 l66 39 1 106 c0 58 1
116 1 128 1 20 8 18 99 -35 123 -73 124 -74 153 -51 13 10 27 19 30 19 4 0 58
30 120 66 63 37 130 76 149 86 19 11 53 31 75 44 l41 24 -1 125 c0 69 1 125 4
125 10 0 201 -113 207 -122 4 -5 10 -5 17 1 7 5 41 26 77 46 36 21 81 46 100
57 19 11 86 50 148 86 l112 65 1 56 c0 31 0 86 0 123 -1 37 4 70 9 73 6 3 10
1 10 -4 0 -6 5 -11 11 -11 6 0 48 -23 95 -50 47 -28 91 -50 98 -50 8 0 110 56
228 124 l213 123 3 255 c3 292 13 260 -103 323 -133 72 -132 59 -6 133 l111
64 0 257 0 256 -110 64 c-94 56 -107 66 -92 76 9 6 59 35 110 65 l92 52 0 258
0 258 -67 38 c-38 21 -87 50 -111 65 l-42 27 110 63 110 63 0 256 0 256 -82
50 c-46 27 -95 55 -111 63 -32 16 -31 17 28 51 24 14 71 41 105 60 l60 35 0
262 c0 180 -3 263 -11 263 -9 0 -121 63 -179 100 -8 6 -22 13 -30 17 -8 4 -60
34 -115 67 -55 32 -104 59 -110 59 -5 0 -50 -24 -100 -53 -49 -28 -97 -56
-107 -61 -15 -8 -17 2 -16 118 l1 127 -219 128 c-120 70 -222 128 -226 128 -3
0 -53 -27 -109 -60 -56 -32 -105 -57 -109 -55 -3 2 -5 58 -5 124 l1 121 -49
30 c-26 16 -50 30 -52 30 -2 0 -45 25 -96 55 -50 30 -94 55 -96 55 -2 0 -38
20 -78 45 l-75 45 -76 -45 c-41 -25 -78 -45 -81 -45 -3 0 -18 -9 -34 -21 -21
-14 -29 -17 -30 -7 0 7 -1 65 -2 128 l-2 114 -40 28 c-22 15 -46 27 -52 28 -7
0 -13 4 -13 10 0 5 -3 9 -7 8 -5 -1 -19 5 -33 13 -42 27 -202 119 -206 119 -2
0 -22 11 -44 25 -22 14 -44 25 -49 25 -5 0 -55 -27 -110 -60 -56 -33 -103 -60
-106 -60 -3 0 -5 57 -5 128 l0 127 -131 75 c-72 41 -152 87 -178 101 -25 14
-65 37 -88 52 -24 15 -44 27 -46 27 -1 0 -61 -34 -132 -75z m-605 -1300 c69
-42 65 -43 228 54 29 17 55 31 57 31 2 0 6 -57 7 -127 l3 -127 108 -64 109
-64 -39 -24 c-21 -13 -44 -24 -50 -24 -7 0 -13 -4 -13 -10 0 -5 -4 -10 -10
-10 -5 0 -32 -14 -60 -31 l-50 -31 0 -257 0 -257 111 -63 c100 -57 108 -64 92
-77 -10 -7 -21 -14 -25 -14 -3 0 -45 -23 -92 -51 l-86 -52 0 -128 0 -128 -111
64 c-81 47 -116 62 -128 56 -9 -5 -56 -32 -104 -60 -49 -28 -92 -51 -95 -51
-4 0 -7 53 -6 118 0 64 -4 123 -10 130 -5 8 -26 22 -45 33 -20 10 -43 24 -51
29 -15 10 -92 54 -160 93 -19 10 -65 37 -102 59 -48 28 -73 38 -88 33 -12 -4
-64 -31 -115 -61 -52 -30 -95 -54 -97 -54 -2 0 -2 57 -2 126 l1 126 -45 29
c-26 16 -59 35 -74 42 -15 6 -28 15 -28 19 0 5 -6 8 -12 8 -7 0 -23 8 -36 18
l-23 18 110 63 110 63 0 111 c0 62 0 120 0 129 1 14 8 13 47 -10 82 -48 108
-64 140 -83 28 -17 32 -17 60 -3 28 15 357 203 399 229 19 11 20 22 19 131 0
66 1 122 3 126 3 7 79 -31 153 -77z m1253 48 c34 -21 83 -49 108 -61 51 -26
43 -28 139 29 110 66 118 69 122 57 2 -7 4 -64 3 -126 l0 -114 65 -38 c36 -21
136 -79 223 -130 l157 -91 110 65 c101 59 110 63 111 43 1 -12 1 -70 1 -128
l1 -107 68 -41 c38 -22 74 -41 79 -41 6 0 10 -4 10 -8 0 -4 15 -13 33 -20 31
-12 31 -13 12 -28 -18 -14 -139 -85 -185 -108 -16 -9 -18 -24 -16 -138 0 -70
-1 -128 -3 -128 -2 0 -50 27 -107 60 -56 33 -108 60 -114 60 -7 0 -65 -31
-129 -68 -64 -38 -143 -84 -176 -103 -33 -19 -69 -40 -80 -46 -11 -7 -28 -16
-37 -19 -22 -8 -20 6 -23 -144 -1 -69 -3 -126 -4 -128 0 -2 -21 11 -45 28 -25
16 -47 30 -50 30 -2 0 -31 16 -64 35 l-59 35 -111 -64 -112 -65 0 127 0 127
-28 18 c-15 10 -64 40 -110 66 l-83 49 111 63 110 63 -2 259 -3 259 -40 23
c-22 12 -71 41 -108 63 l-69 40 49 29 c67 39 124 71 151 85 21 11 22 16 22
140 0 70 2 128 5 128 3 0 33 -17 68 -37z m-2630 -1567 c97 -56 124 -65 142
-47 20 19 185 110 188 103 2 -4 3 -62 2 -129 l0 -121 30 -16 c34 -18 79 -43
180 -103 39 -22 88 -51 110 -64 22 -12 59 -33 82 -46 l42 -24 68 37 c37 20 85
48 105 61 21 12 41 23 45 23 5 0 8 -57 8 -126 l0 -127 107 -61 c59 -34 107
-63 108 -66 0 -3 -28 -20 -63 -39 -34 -19 -80 -46 -102 -60 -22 -14 -43 -25
-46 -24 -4 1 -7 -55 -8 -124 0 -70 -3 -129 -6 -131 -3 -3 -19 4 -35 16 -16 12
-32 22 -34 22 -3 0 -36 18 -72 41 -55 33 -71 39 -89 31 -12 -6 -104 -58 -205
-116 -100 -58 -187 -106 -191 -106 -25 0 -36 -49 -34 -155 1 -60 0 -113 -2
-117 -2 -4 -52 22 -112 56 l-108 64 -39 -23 c-22 -13 -50 -30 -64 -37 -14 -8
-46 -27 -72 -42 l-48 -28 0 129 c0 124 -1 130 -22 142 -13 6 -32 17 -43 24
-11 7 -51 29 -88 50 -79 45 -85 33 61 117 l92 52 0 259 0 259 -22 10 c-13 5
-41 21 -63 35 -22 13 -56 33 -75 44 -19 11 -41 24 -48 29 -9 6 19 28 97 72
l111 63 1 116 c1 64 1 122 0 130 -2 7 1 11 6 8 4 -2 52 -30 106 -61z m3987 11
c8 -4 24 -13 35 -19 10 -7 36 -23 56 -35 l36 -21 109 63 109 64 5 -129 5 -130
31 -17 c17 -10 66 -38 108 -61 l77 -44 -43 -27 c-24 -15 -73 -44 -110 -65
l-68 -38 0 -258 0 -259 73 -41 c68 -38 87 -49 130 -76 15 -10 2 -20 -93 -75
l-110 -63 0 -129 0 -129 -42 25 c-24 14 -59 34 -78 44 -19 11 -50 29 -68 40
l-33 21 -110 -63 c-60 -35 -110 -60 -110 -57 -1 4 -3 57 -4 117 -1 61 -3 115
-4 121 -1 10 -104 74 -255 159 -23 13 -72 42 -111 64 -38 23 -73 41 -76 41 -4
0 -55 -28 -115 -63 l-109 -63 0 129 0 130 -40 23 c-22 13 -70 41 -107 61 -38
21 -68 40 -68 43 0 6 188 113 206 118 7 2 11 41 12 110 0 175 -1 167 20 150
21 -18 195 -118 205 -118 5 0 33 16 63 35 30 19 56 35 58 35 6 0 301 172 311
181 5 6 10 65 11 132 1 67 2 123 3 125 0 1 18 -8 39 -21 20 -13 44 -26 52 -30z
m-2207 -1811 l108 -63 -110 -64 -111 -64 3 -259 2 -259 30 -18 c45 -27 74 -43
130 -74 28 -15 51 -28 53 -30 4 -3 -199 -125 -209 -125 -4 0 -8 -57 -8 -127
-1 -70 -3 -128 -5 -130 -2 -2 -50 24 -107 57 -57 33 -108 60 -112 60 -5 0 -55
-27 -111 -60 -57 -33 -105 -60 -107 -60 -2 0 -4 57 -4 126 l0 126 -222 129
-221 129 -99 -56 c-54 -31 -104 -60 -110 -66 -14 -12 -15 -7 -15 153 l0 96
-108 64 c-60 35 -107 66 -104 69 3 3 51 32 107 65 l102 61 2 123 c1 67 3 124
5 126 2 2 48 -23 103 -55 107 -64 120 -67 150 -46 11 7 38 24 60 36 146 82
341 196 345 202 3 3 5 61 5 127 0 67 3 121 7 121 4 0 30 -13 58 -30 28 -16 53
-30 55 -30 3 0 27 -14 54 -30 l49 -30 108 63 109 63 5 -128 5 -129 108 -63z
m1058 229 c33 19 62 35 64 35 2 0 24 13 47 29 24 16 45 28 48 26 3 -2 5 -60 5
-128 l-1 -125 170 -99 c94 -54 180 -103 191 -110 11 -6 35 -19 53 -29 38 -19
32 -21 166 58 44 26 82 45 85 43 2 -3 5 -60 5 -127 l1 -122 109 -64 109 -64
-49 -30 c-27 -16 -56 -33 -64 -38 -8 -5 -36 -21 -61 -36 l-47 -26 2 -115 c0
-63 -2 -119 -5 -125 -6 -10 -29 1 -156 76 l-62 36 -160 -92 c-89 -51 -186
-107 -217 -124 -31 -17 -59 -36 -63 -43 -4 -6 -7 -65 -6 -131 1 -96 -1 -120
-12 -116 -7 3 -56 30 -109 61 -52 30 -99 55 -104 55 -4 0 -54 -27 -109 -60
-56 -33 -103 -60 -106 -60 -3 0 -5 59 -5 130 0 72 -4 130 -8 130 -5 0 -54 27
-111 61 l-102 61 108 63 108 62 3 259 2 259 -42 23 c-24 12 -74 42 -113 67
-59 37 -67 45 -50 51 11 4 62 32 113 62 l92 54 0 128 0 128 111 -64 110 -64
60 35z"/>
</g>
</svg>
